<svg width="40" height="40" viewBox="0 0 40 40" fill="none" xmlns="http://www.w3.org/2000/svg">
<path d="M27.6435 40H12.3565C5.54201 40 0 34.458 0 27.6435V12.3565C0 5.54202 5.54201 0 12.3565 0H27.6435C34.4579 0 40 5.54202 40 12.3565V27.6435C40.0035 34.458 34.4579 40 27.6435 40ZM12.3565 4.45884C8.0028 4.45884 4.45884 8.0028 4.45884 12.3565V27.6435C4.45884 31.9972 8.0028 35.5412 12.3565 35.5412H27.6435C31.9972 35.5412 35.5411 31.9972 35.5411 27.6435V12.3565C35.5411 8.0028 31.9972 4.45884 27.6435 4.45884H12.3565Z" fill="#363636"/>
<path d="M20.0029 30.2168C14.3663 30.2168 9.78125 25.6318 9.78125 19.9951C9.78125 14.3585 14.3663 9.77344 20.0029 9.77344C25.6396 9.77344 30.2246 14.3585 30.2246 19.9951C30.2246 25.6318 25.6396 30.2168 20.0029 30.2168ZM20.0029 13.7836C16.5782 13.7836 13.7914 16.5704 13.7914 19.9951C13.7914 23.4199 16.5782 26.2066 20.0029 26.2066C23.4277 26.2066 26.2145 23.4199 26.2145 19.9951C26.2145 16.5704 23.4277 13.7836 20.0029 13.7836Z" fill="#363636"/>
<path d="M32.4758 9.18126C32.4758 10.1347 31.7011 10.9095 30.7477 10.9095C29.7942 10.9095 29.0195 10.1347 29.0195 9.18126C29.0195 8.22779 29.7942 7.45312 30.7477 7.45312C31.7011 7.45312 32.4758 8.22429 32.4758 9.18126Z" fill="#363636"/>
</svg>
