<svg width="8" height="10" viewBox="0 0 8 10" fill="none" xmlns="http://www.w3.org/2000/svg">
<path d="M1 1.92889C1 1.50345 1 1.29072 1.08558 1.17346C1.16013 1.0713 1.27408 1.00809 1.39743 1.00045C1.53902 0.991691 1.70977 1.10969 2.05127 1.34569L6.49533 4.41679C6.77751 4.61179 6.9186 4.70929 6.96776 4.83219C7.01075 4.93963 7.01075 5.06037 6.96776 5.16782C6.9186 5.29071 6.77751 5.38821 6.49533 5.58321L2.05127 8.65432C1.70977 8.89031 1.53902 9.00831 1.39743 8.99955C1.27408 8.99191 1.16013 8.9287 1.08558 8.82654C1 8.70928 1 8.49656 1 8.07111V1.92889Z" stroke="white" stroke-width="0.8" stroke-linecap="round" stroke-linejoin="round"/>
</svg>
